<svg xmlns="http://www.w3.org/2000/svg" xmlns:xlink="http://www.w3.org/1999/xlink" width="500" zoomAndPan="magnify" viewBox="0 0 375 374.999991" height="500" preserveAspectRatio="xMidYMid meet" version="1.0"><defs><clipPath id="a28ceff7e2"><path d="M 0 0 L 368.25 0 L 368.25 375 L 0 375 Z M 0 0 " clip-rule="nonzero"/></clipPath></defs><g clip-path="url(#a28ceff7e2)"><path fill="#201e1d" d="M 191.023438 -107.035156 C 28.945312 -107.035156 -102.914062 24.824219 -102.914062 186.902344 C -102.914062 348.984375 28.945312 480.84375 191.023438 480.84375 C 353.101562 480.84375 484.960938 348.984375 484.960938 186.902344 C 484.960938 24.824219 353.101562 -107.035156 191.023438 -107.035156 Z M 191.023438 490.910156 C 149.984375 490.910156 110.171875 482.871094 72.6875 467.019531 C 36.488281 451.707031 3.972656 429.789062 -23.941406 401.871094 C -51.863281 373.953125 -73.777344 341.441406 -89.089844 305.238281 C -104.945312 267.753906 -112.984375 227.941406 -112.984375 186.902344 C -112.984375 145.863281 -104.945312 106.050781 -89.089844 68.566406 C -73.777344 32.367188 -51.863281 -0.144531 -23.941406 -28.0625 C 3.972656 -55.980469 36.488281 -77.898438 72.6875 -93.210938 C 110.171875 -109.066406 149.984375 -117.105469 191.023438 -117.105469 C 232.0625 -117.105469 271.875 -109.066406 309.359375 -93.210938 C 345.558594 -77.898438 378.074219 -55.980469 405.988281 -28.0625 C 433.910156 -0.144531 455.824219 32.367188 471.136719 68.566406 C 486.992188 106.050781 495.03125 145.863281 495.03125 186.902344 C 495.03125 227.941406 486.992188 267.753906 471.136719 305.238281 C 455.824219 341.441406 433.910156 373.953125 405.988281 401.871094 C 378.074219 429.789062 345.558594 451.707031 309.359375 467.019531 C 271.875 482.871094 232.0625 490.910156 191.023438 490.910156 " fill-opacity="1" fill-rule="nonzero"/><path fill="#ffffff" d="M -82.992188 186.902344 C -82.992188 35.566406 39.6875 -87.113281 191.023438 -87.113281 C 342.359375 -87.113281 465.039062 35.566406 465.039062 186.902344 C 465.039062 338.238281 342.359375 460.917969 191.023438 460.917969 C 39.6875 460.917969 -82.992188 338.238281 -82.992188 186.902344 " fill-opacity="1" fill-rule="nonzero"/></g><path fill="#ffffff" d="M 272.859375 93.835938 C 275.664062 89.628906 276.628906 84.457031 275.535156 79.527344 C 273.34375 69.679688 263.683594 63.386719 253.792969 65.367188 L 250.390625 66.046875 L 260.289062 112.691406 L 272.859375 93.835938 " fill-opacity="1" fill-rule="nonzero"/><path fill="#ffffff" d="M 106.511719 79.527344 C 105.417969 84.457031 106.382812 89.628906 109.1875 93.835938 L 121.757812 112.691406 L 131.65625 66.046875 L 128.253906 65.367188 C 118.363281 63.386719 108.703125 69.679688 106.511719 79.527344 " fill-opacity="1" fill-rule="nonzero"/><path fill="#ffffff" d="M 128.632812 238.535156 C 133.324219 241.996094 138.546875 244.902344 144.234375 247.121094 C 138.546875 244.90625 133.324219 242 128.632812 238.535156 Z M 322.285156 203.355469 C 311.683594 192.753906 297.039062 186.195312 280.839844 186.195312 C 281.121094 177.6875 279.765625 168.980469 276.625 160.527344 L 250.390625 90.078125 L 250.390625 47.445312 C 250.390625 25.703125 232.777344 8.09375 211.039062 8.09375 L 171.007812 8.09375 C 149.269531 8.09375 131.65625 25.703125 131.65625 47.445312 L 131.65625 90.078125 L 105.421875 160.527344 C 102.28125 168.980469 100.925781 177.6875 101.207031 186.195312 C 68.835938 186.195312 42.601562 212.433594 42.601562 244.800781 L 42.601562 365.714844 L 339.445312 365.714844 L 339.445312 244.800781 C 339.445312 228.601562 332.886719 213.957031 322.285156 203.355469 " fill-opacity="1" fill-rule="nonzero"/><path fill="#201e1d" d="M 250.390625 90.078125 L 250.398438 90.078125 Z M 136.691406 88.800781 L 152.269531 117.5625 L 187.625 102.410156 C 188.253906 102.144531 188.929688 102.003906 189.609375 102.003906 L 192.4375 102.003906 C 193.117188 102.003906 193.792969 102.144531 194.421875 102.410156 L 229.777344 117.5625 L 245.355469 88.800781 L 245.355469 47.445312 C 245.355469 28.523438 229.960938 13.128906 211.039062 13.128906 L 171.007812 13.128906 C 152.085938 13.128906 136.691406 28.523438 136.691406 47.445312 Z M 232.011719 129.035156 C 231.351562 129.035156 230.675781 128.90625 230.03125 128.628906 L 191.40625 112.074219 L 190.640625 112.074219 L 152.015625 128.628906 C 149.621094 129.652344 146.84375 128.6875 145.605469 126.398438 L 127.230469 92.476562 C 126.832031 91.738281 126.621094 90.914062 126.621094 90.078125 L 126.621094 47.445312 C 126.621094 22.96875 146.53125 3.058594 171.007812 3.058594 L 211.039062 3.058594 C 235.515625 3.058594 255.425781 22.96875 255.425781 47.445312 L 255.425781 90.078125 C 255.425781 90.914062 255.214844 91.738281 254.816406 92.476562 L 236.441406 126.398438 C 235.539062 128.070312 233.8125 129.035156 232.011719 129.035156 " fill-opacity="1" fill-rule="nonzero"/><path fill="#201e1d" d="M 132.507812 102.21875 L 110.136719 162.285156 C 107.285156 169.972656 105.972656 177.964844 106.238281 186.027344 C 106.996094 211.152344 122.628906 233.285156 146.066406 242.429688 L 168.3125 251.109375 C 182.957031 256.804688 199.089844 256.804688 213.734375 251.105469 L 235.984375 242.429688 C 259.417969 233.285156 275.050781 211.152344 275.808594 186.042969 C 275.808594 186.042969 275.808594 186.035156 275.808594 186.027344 C 276.074219 177.964844 274.761719 169.972656 271.910156 162.277344 L 249.539062 102.21875 L 236.441406 126.398438 C 235.203125 128.6875 232.425781 129.652344 230.03125 128.628906 L 191.40625 112.074219 L 190.640625 112.074219 L 152.015625 128.628906 C 149.621094 129.652344 146.84375 128.6875 145.605469 126.398438 Z M 191.019531 265.449219 C 182.089844 265.449219 173.160156 263.796875 164.660156 260.492188 L 142.40625 251.8125 C 115.199219 241.195312 97.050781 215.5 96.175781 186.347656 C 95.863281 176.984375 97.386719 167.699219 100.703125 158.773438 L 126.9375 88.320312 C 127.625 86.46875 129.332031 85.195312 131.300781 85.054688 C 133.273438 84.914062 135.140625 85.945312 136.082031 87.675781 L 152.269531 117.5625 L 187.625 102.410156 C 188.253906 102.144531 188.929688 102.003906 189.609375 102.003906 L 192.4375 102.003906 C 193.117188 102.003906 193.792969 102.144531 194.421875 102.410156 L 229.777344 117.5625 L 245.964844 87.675781 C 246.90625 85.945312 248.773438 84.910156 250.746094 85.054688 C 252.714844 85.195312 254.421875 86.46875 255.109375 88.320312 L 281.34375 158.769531 C 284.660156 167.695312 286.179688 176.972656 285.871094 186.347656 C 284.996094 215.5 266.847656 241.195312 239.640625 251.8125 L 217.390625 260.488281 C 208.890625 263.796875 199.953125 265.449219 191.019531 265.449219 " fill-opacity="1" fill-rule="nonzero"/><path fill="#201e1d" d="M 207.984375 154.480469 L 174.0625 154.480469 C 171.28125 154.480469 169.027344 152.226562 169.027344 149.445312 C 169.027344 146.664062 171.28125 144.410156 174.0625 144.410156 L 207.984375 144.410156 C 210.765625 144.410156 213.019531 146.664062 213.019531 149.445312 C 213.019531 152.226562 210.765625 154.480469 207.984375 154.480469 " fill-opacity="1" fill-rule="nonzero"/><path fill="#201e1d" d="M 165.578125 86.628906 L 157.097656 86.628906 C 154.316406 86.628906 152.0625 84.375 152.0625 81.597656 C 152.0625 78.816406 154.316406 76.5625 157.097656 76.5625 L 165.578125 76.5625 C 168.359375 76.5625 170.613281 78.816406 170.613281 81.597656 C 170.613281 84.375 168.359375 86.628906 165.578125 86.628906 " fill-opacity="1" fill-rule="nonzero"/><path fill="#201e1d" d="M 224.949219 86.628906 L 216.46875 86.628906 C 213.6875 86.628906 211.433594 84.375 211.433594 81.597656 C 211.433594 78.816406 213.6875 76.5625 216.46875 76.5625 L 224.949219 76.5625 C 227.730469 76.5625 229.984375 78.816406 229.984375 81.597656 C 229.984375 84.375 227.730469 86.628906 224.949219 86.628906 " fill-opacity="1" fill-rule="nonzero"/><path fill="#201e1d" d="M 260.28125 117.726562 C 259.324219 117.726562 258.351562 117.453125 257.496094 116.882812 C 255.179688 115.339844 254.554688 112.214844 256.097656 109.898438 L 268.671875 91.042969 C 270.703125 87.992188 271.414062 84.195312 270.617188 80.617188 C 269.039062 73.5 261.929688 68.875 254.785156 70.304688 L 251.378906 70.984375 C 248.652344 71.527344 246 69.761719 245.457031 67.035156 C 244.910156 64.308594 246.679688 61.65625 249.40625 61.109375 L 252.808594 60.429688 C 265.285156 57.933594 277.6875 66.007812 280.445312 78.433594 C 281.832031 84.675781 280.59375 91.304688 277.050781 96.628906 L 264.476562 115.484375 C 263.503906 116.941406 261.910156 117.726562 260.28125 117.726562 " fill-opacity="1" fill-rule="nonzero"/><path fill="#201e1d" d="M 121.765625 117.726562 C 120.136719 117.726562 118.542969 116.941406 117.570312 115.484375 L 104.996094 96.628906 C 101.453125 91.304688 100.214844 84.675781 101.601562 78.433594 C 104.359375 66.007812 116.757812 57.933594 129.238281 60.429688 L 132.640625 61.109375 C 135.367188 61.65625 137.136719 64.308594 136.589844 67.035156 C 136.046875 69.761719 133.394531 71.53125 130.667969 70.984375 L 127.261719 70.304688 C 120.113281 68.875 113.007812 73.5 111.429688 80.617188 C 110.632812 84.195312 111.34375 87.992188 113.375 91.042969 L 125.949219 109.898438 C 127.492188 112.214844 126.867188 115.339844 124.550781 116.882812 C 123.695312 117.453125 122.722656 117.726562 121.765625 117.726562 " fill-opacity="1" fill-rule="nonzero"/><path fill="#201e1d" d="M 47.636719 360.679688 L 334.410156 360.679688 L 334.410156 244.800781 C 334.410156 230.488281 328.835938 217.03125 318.722656 206.917969 C 309.726562 197.917969 298.082031 192.515625 285.542969 191.433594 C 282.835938 218.457031 265.253906 241.8125 239.640625 251.8125 L 217.390625 260.488281 C 200.386719 267.101562 181.660156 267.101562 164.660156 260.492188 L 142.40625 251.8125 C 128.917969 246.5625 117.417969 237.496094 109.144531 225.59375 C 102.058594 215.375 97.738281 203.660156 96.507812 191.4375 C 69.160156 193.824219 47.636719 216.84375 47.636719 244.800781 Z M 339.445312 370.75 L 42.601562 370.75 C 39.820312 370.75 37.566406 368.496094 37.566406 365.714844 L 37.566406 244.800781 C 37.566406 209.710938 66.117188 181.164062 101.207031 181.164062 C 103.929688 181.164062 106.160156 183.324219 106.238281 186.042969 C 106.605469 198.140625 110.46875 209.832031 117.417969 219.855469 C 124.535156 230.097656 134.441406 237.910156 146.0625 242.429688 L 168.3125 251.109375 C 182.957031 256.804688 199.089844 256.804688 213.734375 251.105469 L 235.984375 242.429688 C 259.417969 233.285156 275.050781 211.152344 275.808594 186.042969 C 275.886719 183.324219 278.117188 181.164062 280.839844 181.164062 C 297.84375 181.164062 313.828125 187.78125 325.84375 199.796875 C 337.859375 211.8125 344.480469 227.796875 344.480469 244.800781 L 344.480469 365.714844 C 344.480469 368.496094 342.226562 370.75 339.445312 370.75 " fill-opacity="1" fill-rule="nonzero"/><path fill="#201e1d" d="M 133.539062 370.75 C 131.34375 370.75 129.328125 369.308594 128.695312 367.09375 C 127.9375 364.421875 129.488281 361.636719 132.160156 360.871094 C 132.992188 360.636719 215.449219 336.875 242.425781 307.199219 C 268.230469 278.816406 251.675781 238.78125 251.507812 238.378906 C 250.421875 235.816406 251.617188 232.863281 254.171875 231.777344 C 256.734375 230.6875 259.6875 231.882812 260.773438 234.445312 C 260.972656 234.917969 265.683594 246.164062 266.769531 261.484375 C 268.226562 282.066406 262.382812 300.214844 249.875 313.972656 C 220.972656 345.769531 138.421875 369.558594 134.921875 370.558594 C 134.457031 370.6875 133.996094 370.75 133.539062 370.75 " fill-opacity="1" fill-rule="nonzero"/><path fill="#201e1d" d="M 104.796875 370.75 C 102.019531 370.75 99.761719 368.496094 99.761719 365.714844 L 99.761719 290.796875 C 99.761719 288.019531 102.019531 285.761719 104.796875 285.761719 C 107.578125 285.761719 109.832031 288.019531 109.832031 290.796875 L 109.832031 365.714844 C 109.832031 368.496094 107.578125 370.75 104.796875 370.75 " fill-opacity="1" fill-rule="nonzero"/></svg>